name Walk4.mot
datacolumns 19
datarows 10
range 2.00000000 2.04500000
endheader

                time	   L_ground_force_vx	   L_ground_force_vy	   L_ground_force_vz	   L_ground_force_px	   L_ground_force_py	   L_ground_force_pz	   R_ground_force_vx	   R_ground_force_vy	   R_ground_force_vz	   R_ground_force_px	   R_ground_force_py	   R_ground_force_pz	   L_ground_torque_x	   L_ground_torque_y	   L_ground_torque_z	   R_ground_torque_x	   R_ground_torque_y	   R_ground_torque_z	
          2.00000000	        -23.58277607	        529.61268870	         23.67073175	          0.49079705	          0.00000000	          0.23997783	          0.00118984	         -0.00708030	          0.00085909	         -0.00001930	          0.00000000	          0.00012603	          0.00000000	         -1.36207157	          0.00000000	          0.00000000	          0.00014445	          0.00000000	
          2.00500000	        -21.45518849	        525.82623904	         24.31601504	          0.49227024	          0.00000000	          0.23973899	         -0.00327600	         -0.01542299	          0.00038912	         -0.00001098	          0.00000000	          0.00008023	          0.00000000	         -1.45580251	          0.00000000	          0.00000000	          0.00010182	          0.00000000	
          2.01000000	        -19.44800150	        523.47483327	         25.23065515	          0.49376808	          0.00000000	          0.23946634	         -0.00588077	         -0.01955322	          0.00005697	         -0.00000477	          0.00000000	          0.00004451	          0.00000000	         -1.53219808	          0.00000000	          0.00000000	          0.00006642	          0.00000000	
          2.01500000	        -17.52624447	        522.59087899	         26.34133886	          0.49528445	          0.00000000	          0.23916776	         -0.00708606	         -0.02065544	         -0.00016054	         -0.00000041	          0.00000000	          0.00001808	          0.00000000	         -1.59351953	          0.00000000	          0.00000000	          0.00003847	          0.00000000	
          2.02000000	        -15.65753380	        523.19974631	         27.55892196	          0.49681153	          0.00000000	          0.23885288	         -0.00729856	         -0.01972867	         -0.00028733	          0.00000241	          0.00000000	         -0.00000029	          0.00000000	         -1.64366717	          0.00000000	          0.00000000	          0.00001750	          0.00000000	
          2.02500000	        -13.81516100	        525.31351312	         28.78732270	          0.49834389	          0.00000000	          0.23853265	         -0.00685761	         -0.01757406	         -0.00034591	          0.00000404	          0.00000000	         -0.00001206	          0.00000000	         -1.68782086	          0.00000000	          0.00000000	          0.00000267	          0.00000000	
          2.03000000	        -11.97916567	        528.92151254	         29.93358720	          0.49987831	          0.00000000	          0.23821747	         -0.00603248	         -0.01480245	         -0.00035612	          0.00000476	          0.00000000	         -0.00001864	          0.00000000	         -1.73172663	          0.00000000	          0.00000000	         -0.00000705	          0.00000000	
          2.03500000	        -10.13481832	        533.98496134	         30.91812994	          0.50141177	          0.00000000	          0.23791719	         -0.00502625	         -0.01185437	         -0.00033450	          0.00000484	          0.00000000	         -0.00002139	          0.00000000	         -1.78093081	          0.00000000	          0.00000000	         -0.00001273	          0.00000000	
          2.04000000	         -8.27104811	        540.43528085	         31.68335083	          0.50294268	          0.00000000	          0.23764039	         -0.00398345	         -0.00902629	         -0.00029419	          0.00000451	          0.00000000	         -0.00002147	          0.00000000	         -1.83979336	          0.00000000	          0.00000000	         -0.00001536	          0.00000000	
          2.04500000	         -6.37989937	        548.16966443	         32.19750337	          0.50447363	          0.00000000	          0.23739429	         -0.00299969	         -0.00649883	         -0.00024506	          0.00000395	          0.00000000	         -0.00001981	          0.00000000	         -1.91137480	          0.00000000	          0.00000000	         -0.00001583	          0.00000000	
